<mxfile host="app.diagrams.net" agent="Mozilla/5.0 (Windows NT 10.0; Win64; x64) AppleWebKit/537.36 (KHTML, like Gecko) Chrome/137.0.0.0 Safari/537.36" version="28.1.2">
  <diagram name="หน้า-1" id="C7PLJoMffhd8uLANwb6m">
    <mxGraphModel dx="1158" dy="586" grid="1" gridSize="10" guides="1" tooltips="1" connect="1" arrows="1" fold="1" page="1" pageScale="1" pageWidth="1654" pageHeight="2336" math="0" shadow="0">
      <root>
        <mxCell id="0" />
        <mxCell id="1" parent="0" />
        <mxCell id="zyjmNUo7LAtH4UfLsvOI-4" style="edgeStyle=orthogonalEdgeStyle;rounded=0;orthogonalLoop=1;jettySize=auto;html=1;entryX=0.5;entryY=0;entryDx=0;entryDy=0;" parent="1" source="zyjmNUo7LAtH4UfLsvOI-1" target="zyjmNUo7LAtH4UfLsvOI-3" edge="1">
          <mxGeometry relative="1" as="geometry" />
        </mxCell>
        <mxCell id="zyjmNUo7LAtH4UfLsvOI-1" value="&lt;font style=&quot;font-size: 14px;&quot;&gt;เริ่ม&lt;/font&gt;" style="ellipse;whiteSpace=wrap;html=1;" parent="1" vertex="1">
          <mxGeometry x="520" y="40" width="110" height="50" as="geometry" />
        </mxCell>
        <mxCell id="zyjmNUo7LAtH4UfLsvOI-3" value="n = เก็บค่าที่&lt;div&gt;ผู้ใช้ป้อน&lt;/div&gt;" style="shape=parallelogram;perimeter=parallelogramPerimeter;whiteSpace=wrap;html=1;fixedSize=1;" parent="1" vertex="1">
          <mxGeometry x="515" y="150" width="120" height="60" as="geometry" />
        </mxCell>
        <mxCell id="lN0C34qINitGibkDusYB-1" style="edgeStyle=orthogonalEdgeStyle;rounded=0;orthogonalLoop=1;jettySize=auto;html=1;entryX=0.5;entryY=0;entryDx=0;entryDy=0;" edge="1" parent="1">
          <mxGeometry relative="1" as="geometry">
            <mxPoint x="574.5" y="210" as="sourcePoint" />
            <mxPoint x="575" y="280" as="targetPoint" />
          </mxGeometry>
        </mxCell>
        <mxCell id="lN0C34qINitGibkDusYB-6" style="edgeStyle=orthogonalEdgeStyle;rounded=0;orthogonalLoop=1;jettySize=auto;html=1;entryX=0.5;entryY=0;entryDx=0;entryDy=0;" edge="1" parent="1" source="lN0C34qINitGibkDusYB-3" target="lN0C34qINitGibkDusYB-5">
          <mxGeometry relative="1" as="geometry" />
        </mxCell>
        <mxCell id="lN0C34qINitGibkDusYB-38" value="เท็จ" style="edgeLabel;html=1;align=center;verticalAlign=middle;resizable=0;points=[];" vertex="1" connectable="0" parent="lN0C34qINitGibkDusYB-6">
          <mxGeometry x="-0.292" relative="1" as="geometry">
            <mxPoint as="offset" />
          </mxGeometry>
        </mxCell>
        <mxCell id="lN0C34qINitGibkDusYB-33" style="edgeStyle=orthogonalEdgeStyle;rounded=0;orthogonalLoop=1;jettySize=auto;html=1;entryX=0.5;entryY=0;entryDx=0;entryDy=0;" edge="1" parent="1" source="lN0C34qINitGibkDusYB-3" target="lN0C34qINitGibkDusYB-32">
          <mxGeometry relative="1" as="geometry" />
        </mxCell>
        <mxCell id="lN0C34qINitGibkDusYB-39" value="จริง" style="edgeLabel;html=1;align=center;verticalAlign=middle;resizable=0;points=[];" vertex="1" connectable="0" parent="lN0C34qINitGibkDusYB-33">
          <mxGeometry x="0.0884" y="2" relative="1" as="geometry">
            <mxPoint as="offset" />
          </mxGeometry>
        </mxCell>
        <mxCell id="lN0C34qINitGibkDusYB-3" value="&lt;div&gt;&lt;span style=&quot;background-color: transparent; color: light-dark(rgb(0, 0, 0), rgb(255, 255, 255));&quot;&gt;เป็นจำนวนเต็ม&lt;/span&gt;&lt;/div&gt;&lt;div&gt;&lt;span style=&quot;background-color: transparent; color: light-dark(rgb(0, 0, 0), rgb(255, 255, 255));&quot;&gt;ใช่หรือไม่&lt;/span&gt;&lt;/div&gt;" style="rhombus;whiteSpace=wrap;html=1;" vertex="1" parent="1">
          <mxGeometry x="500" y="390" width="150" height="80" as="geometry" />
        </mxCell>
        <mxCell id="lN0C34qINitGibkDusYB-35" style="edgeStyle=orthogonalEdgeStyle;rounded=0;orthogonalLoop=1;jettySize=auto;html=1;entryX=1;entryY=0.5;entryDx=0;entryDy=0;exitX=0.5;exitY=1;exitDx=0;exitDy=0;" edge="1" parent="1" source="lN0C34qINitGibkDusYB-5" target="lN0C34qINitGibkDusYB-36">
          <mxGeometry relative="1" as="geometry">
            <mxPoint x="880" y="390" as="targetPoint" />
            <Array as="points">
              <mxPoint x="777" y="590" />
              <mxPoint x="940" y="590" />
              <mxPoint x="940" y="290" />
            </Array>
          </mxGeometry>
        </mxCell>
        <mxCell id="lN0C34qINitGibkDusYB-5" value="Please Enter number" style="rounded=0;whiteSpace=wrap;html=1;" vertex="1" parent="1">
          <mxGeometry x="717" y="490" width="120" height="60" as="geometry" />
        </mxCell>
        <mxCell id="lN0C34qINitGibkDusYB-111" style="edgeStyle=orthogonalEdgeStyle;rounded=0;orthogonalLoop=1;jettySize=auto;html=1;entryX=0.5;entryY=0;entryDx=0;entryDy=0;" edge="1" parent="1" source="lN0C34qINitGibkDusYB-8" target="lN0C34qINitGibkDusYB-110">
          <mxGeometry relative="1" as="geometry" />
        </mxCell>
        <mxCell id="lN0C34qINitGibkDusYB-8" value="i เริ่มจาก n" style="rounded=0;whiteSpace=wrap;html=1;" vertex="1" parent="1">
          <mxGeometry x="520" y="710" width="120" height="60" as="geometry" />
        </mxCell>
        <mxCell id="lN0C34qINitGibkDusYB-32" value="" style="ellipse;whiteSpace=wrap;html=1;" vertex="1" parent="1">
          <mxGeometry x="565" y="600" width="20" height="20" as="geometry" />
        </mxCell>
        <mxCell id="lN0C34qINitGibkDusYB-34" style="edgeStyle=orthogonalEdgeStyle;rounded=0;orthogonalLoop=1;jettySize=auto;html=1;entryX=0.459;entryY=-0.032;entryDx=0;entryDy=0;entryPerimeter=0;" edge="1" parent="1" source="lN0C34qINitGibkDusYB-32" target="lN0C34qINitGibkDusYB-8">
          <mxGeometry relative="1" as="geometry" />
        </mxCell>
        <mxCell id="lN0C34qINitGibkDusYB-37" style="edgeStyle=orthogonalEdgeStyle;rounded=0;orthogonalLoop=1;jettySize=auto;html=1;entryX=0.5;entryY=0;entryDx=0;entryDy=0;" edge="1" parent="1" source="lN0C34qINitGibkDusYB-36" target="lN0C34qINitGibkDusYB-3">
          <mxGeometry relative="1" as="geometry" />
        </mxCell>
        <mxCell id="lN0C34qINitGibkDusYB-36" value="" style="ellipse;whiteSpace=wrap;html=1;" vertex="1" parent="1">
          <mxGeometry x="565" y="280" width="20" height="20" as="geometry" />
        </mxCell>
        <mxCell id="lN0C34qINitGibkDusYB-50" style="edgeStyle=orthogonalEdgeStyle;rounded=0;orthogonalLoop=1;jettySize=auto;html=1;entryX=0.5;entryY=0;entryDx=0;entryDy=0;exitX=0.504;exitY=1.046;exitDx=0;exitDy=0;exitPerimeter=0;" edge="1" parent="1" source="lN0C34qINitGibkDusYB-43" target="lN0C34qINitGibkDusYB-49">
          <mxGeometry relative="1" as="geometry">
            <mxPoint x="580" y="1020" as="sourcePoint" />
          </mxGeometry>
        </mxCell>
        <mxCell id="lN0C34qINitGibkDusYB-104" style="edgeStyle=orthogonalEdgeStyle;rounded=0;orthogonalLoop=1;jettySize=auto;html=1;entryX=0;entryY=0.5;entryDx=0;entryDy=0;" edge="1" parent="1" source="lN0C34qINitGibkDusYB-43" target="lN0C34qINitGibkDusYB-83">
          <mxGeometry relative="1" as="geometry">
            <Array as="points">
              <mxPoint x="1130" y="930" />
              <mxPoint x="1130" y="2100" />
            </Array>
          </mxGeometry>
        </mxCell>
        <mxCell id="lN0C34qINitGibkDusYB-43" value="i มากกว่าหรือเท่ากับ 2&lt;div&gt;ใช่หรือไม่&lt;/div&gt;" style="rhombus;whiteSpace=wrap;html=1;" vertex="1" parent="1">
          <mxGeometry x="505" y="890" width="150" height="80" as="geometry" />
        </mxCell>
        <mxCell id="lN0C34qINitGibkDusYB-49" value="j เริ่ม&lt;span style=&quot;color: rgba(0, 0, 0, 0); font-family: monospace; font-size: 0px; text-align: start; text-wrap-mode: nowrap;&quot;&gt;%3CmxGraphModel%3E%3Croot%3E%3CmxCell%20id%3D%220%22%2F%3E%3CmxCell%20id%3D%221%22%20parent%3D%220%22%2F%3E%3CmxCell%20id%3D%222%22%20value%3D%22i%20%E0%B8%A5%E0%B8%94%E0%B8%A5%E0%B8%87%E0%B8%97%E0%B8%B5%E0%B8%A5%E0%B8%B0%201%22%20style%3D%22rounded%3D0%3BwhiteSpace%3Dwrap%3Bhtml%3D1%3B%22%20vertex%3D%221%22%20parent%3D%221%22%3E%3CmxGeometry%20x%3D%22505%22%20y%3D%22720%22%20width%3D%22120%22%20height%3D%2260%22%20as%3D%22geometry%22%2F%3E%3C%2FmxCell%3E%3C%2Froot%3E%3C%2FmxGraphModel%3E&lt;/span&gt;จาก 2" style="rounded=0;whiteSpace=wrap;html=1;" vertex="1" parent="1">
          <mxGeometry x="520" y="1070" width="120" height="60" as="geometry" />
        </mxCell>
        <mxCell id="lN0C34qINitGibkDusYB-58" style="edgeStyle=orthogonalEdgeStyle;rounded=0;orthogonalLoop=1;jettySize=auto;html=1;entryX=0.5;entryY=0;entryDx=0;entryDy=0;" edge="1" parent="1" source="lN0C34qINitGibkDusYB-53" target="lN0C34qINitGibkDusYB-57">
          <mxGeometry relative="1" as="geometry" />
        </mxCell>
        <mxCell id="lN0C34qINitGibkDusYB-99" style="edgeStyle=orthogonalEdgeStyle;rounded=0;orthogonalLoop=1;jettySize=auto;html=1;exitX=0;exitY=0.5;exitDx=0;exitDy=0;entryX=0;entryY=0.5;entryDx=0;entryDy=0;" edge="1" parent="1" source="lN0C34qINitGibkDusYB-53" target="lN0C34qINitGibkDusYB-100">
          <mxGeometry relative="1" as="geometry">
            <mxPoint x="550" y="1640" as="targetPoint" />
            <Array as="points">
              <mxPoint x="430" y="1370" />
              <mxPoint x="430" y="1680" />
            </Array>
          </mxGeometry>
        </mxCell>
        <mxCell id="lN0C34qINitGibkDusYB-53" value="j คูณ j น้อยกว่าหรือ&lt;div&gt;เท่ากับ i ใช่หรือไม่&lt;/div&gt;" style="rhombus;whiteSpace=wrap;html=1;" vertex="1" parent="1">
          <mxGeometry x="505" y="1330" width="150" height="80" as="geometry" />
        </mxCell>
        <mxCell id="lN0C34qINitGibkDusYB-91" style="edgeStyle=orthogonalEdgeStyle;rounded=0;orthogonalLoop=1;jettySize=auto;html=1;entryX=0.5;entryY=0;entryDx=0;entryDy=0;" edge="1" parent="1" source="lN0C34qINitGibkDusYB-57" target="lN0C34qINitGibkDusYB-92">
          <mxGeometry relative="1" as="geometry">
            <mxPoint x="820" y="1660" as="targetPoint" />
          </mxGeometry>
        </mxCell>
        <mxCell id="lN0C34qINitGibkDusYB-94" style="edgeStyle=orthogonalEdgeStyle;rounded=0;orthogonalLoop=1;jettySize=auto;html=1;" edge="1" parent="1" source="lN0C34qINitGibkDusYB-57">
          <mxGeometry relative="1" as="geometry">
            <mxPoint x="580" y="1670" as="targetPoint" />
          </mxGeometry>
        </mxCell>
        <mxCell id="lN0C34qINitGibkDusYB-57" value="i หาร&amp;nbsp; j&amp;nbsp;&lt;span style=&quot;background-color: transparent; color: light-dark(rgb(0, 0, 0), rgb(255, 255, 255));&quot;&gt;ไม่เท่ากับ&amp;nbsp;&lt;/span&gt;&lt;span style=&quot;background-color: transparent; color: light-dark(rgb(0, 0, 0), rgb(255, 255, 255));&quot;&gt;0&lt;/span&gt;&lt;div&gt;&lt;span style=&quot;background-color: transparent; color: light-dark(rgb(0, 0, 0), rgb(255, 255, 255));&quot;&gt;ใช่หรือไม่&lt;/span&gt;&lt;/div&gt;" style="rhombus;whiteSpace=wrap;html=1;" vertex="1" parent="1">
          <mxGeometry x="505" y="1490" width="150" height="80" as="geometry" />
        </mxCell>
        <mxCell id="lN0C34qINitGibkDusYB-67" style="edgeStyle=orthogonalEdgeStyle;rounded=0;orthogonalLoop=1;jettySize=auto;html=1;entryX=0.5;entryY=0;entryDx=0;entryDy=0;" edge="1" parent="1" source="lN0C34qINitGibkDusYB-64" target="lN0C34qINitGibkDusYB-53">
          <mxGeometry relative="1" as="geometry" />
        </mxCell>
        <mxCell id="lN0C34qINitGibkDusYB-64" value="" style="ellipse;whiteSpace=wrap;html=1;" vertex="1" parent="1">
          <mxGeometry x="570" y="1230" width="20" height="20" as="geometry" />
        </mxCell>
        <mxCell id="lN0C34qINitGibkDusYB-85" style="edgeStyle=orthogonalEdgeStyle;rounded=0;orthogonalLoop=1;jettySize=auto;html=1;" edge="1" parent="1" source="lN0C34qINitGibkDusYB-83">
          <mxGeometry relative="1" as="geometry">
            <mxPoint x="580" y="2180" as="targetPoint" />
          </mxGeometry>
        </mxCell>
        <mxCell id="lN0C34qINitGibkDusYB-83" value="" style="ellipse;whiteSpace=wrap;html=1;" vertex="1" parent="1">
          <mxGeometry x="570" y="2090" width="20" height="20" as="geometry" />
        </mxCell>
        <mxCell id="lN0C34qINitGibkDusYB-88" value="&lt;font style=&quot;font-size: 14px;&quot;&gt;จบ&lt;/font&gt;" style="ellipse;whiteSpace=wrap;html=1;" vertex="1" parent="1">
          <mxGeometry x="530" y="2180" width="110" height="50" as="geometry" />
        </mxCell>
        <mxCell id="lN0C34qINitGibkDusYB-93" style="edgeStyle=orthogonalEdgeStyle;rounded=0;orthogonalLoop=1;jettySize=auto;html=1;entryX=1;entryY=0.5;entryDx=0;entryDy=0;exitX=0.5;exitY=1;exitDx=0;exitDy=0;" edge="1" parent="1" source="lN0C34qINitGibkDusYB-92" target="lN0C34qINitGibkDusYB-64">
          <mxGeometry relative="1" as="geometry">
            <Array as="points">
              <mxPoint x="820" y="1770" />
              <mxPoint x="960" y="1770" />
              <mxPoint x="960" y="1240" />
            </Array>
          </mxGeometry>
        </mxCell>
        <mxCell id="lN0C34qINitGibkDusYB-92" value="j บวกเพิ่ม 1" style="rounded=0;whiteSpace=wrap;html=1;" vertex="1" parent="1">
          <mxGeometry x="760" y="1660" width="120" height="60" as="geometry" />
        </mxCell>
        <mxCell id="lN0C34qINitGibkDusYB-97" style="edgeStyle=orthogonalEdgeStyle;rounded=0;orthogonalLoop=1;jettySize=auto;html=1;" edge="1" parent="1" target="lN0C34qINitGibkDusYB-96">
          <mxGeometry relative="1" as="geometry">
            <mxPoint x="575" y="1830" as="sourcePoint" />
          </mxGeometry>
        </mxCell>
        <mxCell id="lN0C34qINitGibkDusYB-113" style="edgeStyle=orthogonalEdgeStyle;rounded=0;orthogonalLoop=1;jettySize=auto;html=1;entryX=1;entryY=0.5;entryDx=0;entryDy=0;exitX=0.5;exitY=1;exitDx=0;exitDy=0;" edge="1" parent="1" source="lN0C34qINitGibkDusYB-96" target="lN0C34qINitGibkDusYB-110">
          <mxGeometry relative="1" as="geometry">
            <Array as="points">
              <mxPoint x="575" y="2040" />
              <mxPoint x="1080" y="2040" />
              <mxPoint x="1080" y="820" />
            </Array>
          </mxGeometry>
        </mxCell>
        <mxCell id="lN0C34qINitGibkDusYB-96" value="i = i-1" style="rounded=0;whiteSpace=wrap;html=1;" vertex="1" parent="1">
          <mxGeometry x="515" y="1940" width="120" height="60" as="geometry" />
        </mxCell>
        <mxCell id="lN0C34qINitGibkDusYB-100" value="" style="ellipse;whiteSpace=wrap;html=1;" vertex="1" parent="1">
          <mxGeometry x="570" y="1670" width="20" height="20" as="geometry" />
        </mxCell>
        <mxCell id="lN0C34qINitGibkDusYB-101" style="edgeStyle=orthogonalEdgeStyle;rounded=0;orthogonalLoop=1;jettySize=auto;html=1;entryX=0.542;entryY=0;entryDx=0;entryDy=0;entryPerimeter=0;" edge="1" parent="1" source="lN0C34qINitGibkDusYB-100">
          <mxGeometry relative="1" as="geometry">
            <mxPoint x="580.04" y="1770" as="targetPoint" />
          </mxGeometry>
        </mxCell>
        <mxCell id="lN0C34qINitGibkDusYB-105" style="edgeStyle=orthogonalEdgeStyle;rounded=0;orthogonalLoop=1;jettySize=auto;html=1;exitX=0.5;exitY=1;exitDx=0;exitDy=0;entryX=0.5;entryY=0;entryDx=0;entryDy=0;" edge="1" parent="1" source="lN0C34qINitGibkDusYB-49" target="lN0C34qINitGibkDusYB-64">
          <mxGeometry relative="1" as="geometry" />
        </mxCell>
        <mxCell id="lN0C34qINitGibkDusYB-106" value="แสดง i" style="shape=parallelogram;perimeter=parallelogramPerimeter;whiteSpace=wrap;html=1;fixedSize=1;" vertex="1" parent="1">
          <mxGeometry x="520" y="1770" width="120" height="60" as="geometry" />
        </mxCell>
        <mxCell id="lN0C34qINitGibkDusYB-112" style="edgeStyle=orthogonalEdgeStyle;rounded=0;orthogonalLoop=1;jettySize=auto;html=1;entryX=0.5;entryY=0;entryDx=0;entryDy=0;" edge="1" parent="1" source="lN0C34qINitGibkDusYB-110" target="lN0C34qINitGibkDusYB-43">
          <mxGeometry relative="1" as="geometry" />
        </mxCell>
        <mxCell id="lN0C34qINitGibkDusYB-110" value="" style="ellipse;whiteSpace=wrap;html=1;" vertex="1" parent="1">
          <mxGeometry x="570" y="810" width="20" height="20" as="geometry" />
        </mxCell>
      </root>
    </mxGraphModel>
  </diagram>
</mxfile>
